<svg xmlns="http://www.w3.org/2000/svg" viewBox="-80 761.9 160 160"><path fill="#27A73F" d="M-59 876.5C-74.3 850.8-71.2 817-49 795c4.1-4.1 8.6-7.5 13.4-10.3.1-.1-2.5-5.2-2.4-5.2-.1-.1-6-2.6-6-2.6-21.4 13.8-35.5 37.8-35.5 65 0 13.9 3.7 27 10.1 38.3l4.3-3.5 6.1-.2zm10.7 13.6l-14.1.2c8.1 10 18.6 18 30.7 23h.1l4.8-3.7.7-5c-8.2-3.2-15.8-8.1-22.2-14.5zm27 16.3l-9.6 7.2c1.5.6 3.1 1.2 4.7 1.7 1.3-3 3-6.1 4.9-8.9z"/><path fill="#E11F29" d="M75.3 839.5L65 833.3c-2-13.9-8.4-27.3-19-38-20.5-20.5-51.1-25.1-75.9-13.7l-13.3-5.4c11.9-7.5 26-11.7 41.1-11.7 41.8.1 76 33.3 77.4 75z"/><path fill="#F4D70C" d="M75.3 840.4l-5.1-3-4.8 1.3c.6 13.1-3.2 26.1-10.6 37.6h12.3c5.4-10.9 8.4-23.1 8.2-35.9zm-32 49.8c-18.1 17-42.4 23-64.6 16.2l-9.7 7.3c9 3.6 18.4 5.5 28.9 5.5 24.3 0 46-11.3 60.2-28.9l-14.8-.1z"/><path fill="#007BB3" d="M-21.6 851.3H-3v-22.1h-18.7v22.1zm21.5.2h18.7v-22.1H-.1v22.1zm-21.5 24.6H-3V854h-18.7v22.1zm21.5.2h18.7v-22.1H-.1v22.1z"/><path fill="#007BB3" d="M71.4 879.6H40v-45l14.1-.8.3-7.3L35 812.1l-.5-17.1-15.8.3.2 4.8-21.4-15.8-55.1 42.4.3 7.5h13.7v45.3l-24.3.2L-80 889l39.5-.3 5.9-7.3-.2-48.5-5.6-2h-5.9l44-33.8 19.5 14.4 4.2-5.9 5.3-.2V819l16 11v1.4h-6.8l-5.9 2.2.2 47.9 7.1 7.3 42.8.2-8.7-9.4z"/></svg>